<?xml version="1.0" encoding="utf-8"?>
<!-- Generator: Adobe Illustrator 28.0.0, SVG Export Plug-In . SVG Version: 6.00 Build 0)  -->
<svg version="1.1" id="Layer_1" xmlns="http://www.w3.org/2000/svg" xmlns:xlink="http://www.w3.org/1999/xlink" x="0px" y="0px"
	 viewBox="0 0 500 500" style="enable-background:new 0 0 500 500;" xml:space="preserve">
<style type="text/css">
	.st0{fill:#ED1C24;}
	.st1{fill:#FCEE27;}
	.st2{fill:#FFFFFF;}
</style>
<g>
	<rect x="5" y="5" class="st0" width="490" height="490"/>
	<path d="M490,10v480H10V10H490 M500,0H0v500h500V0L500,0z"/>
</g>
<g>
	<g>
		<path d="M186.5,402.2c-13.6-4.6-25.9-11.7-36.6-21.2l-0.3-0.3l-0.3-0.3c-9.7-9.1-17.4-20.4-22.4-32.7l-0.1-0.2l-0.1-0.3
			c-4.7-12.3-7.1-25.2-7-38.3c0-3.9,0.1-7.9,0.5-11.7c0.4-4.2,1-8.5,1.9-12.7l6-27.5h37.7c-4.4-5.4-8.1-11.2-11.1-17.6l-0.3-0.6
			c-5.5-12.3-8.2-25.9-8-39.3c0-14.2,2.8-27.9,8.3-41l0.1-0.2l0.1-0.2c5.7-13.1,14.5-24.9,25.4-34.2l0.2-0.2
			c11.6-9.7,24.9-16.9,39.4-21.3c15.3-4.8,31.3-7.2,47.4-7.2c0.8,0,1.6,0,2.3,0l1.9,0c14.1,0,28.1,2.1,41.6,6.2
			c12.9,3.8,24.8,10.1,35.3,18.5l0.3,0.3c9.9,8.1,18,18.5,23.4,30.1c5.5,11.7,8.3,24.7,8.1,37.6c0,3.4-0.2,6.8-0.5,10.1
			c-0.4,4.1-1,8.2-1.9,12.2l-1.5,6.5l-4.2,18.8h-30.7c14.7,15.1,22.1,35.3,22.2,60.1c0.4,16.1-2.9,32.5-9.3,47.2l-0.1,0.3
			c-6.3,14-15.8,26.6-27.5,36.5l-0.2,0.2l-0.2,0.2c-3.1,2.5-5.9,4.7-8.7,6.6l-4.9,3.4l-112,14.3l-5.3,0.7L186.5,402.2z"/>
		<path class="st1" d="M271.4,103.4c13.3,0,26.5,2,39.3,5.9c11.9,3.5,22.9,9.3,32.6,17.1l0,0l0,0c9.1,7.3,16.5,16.8,21.4,27.4
			c4.9,10.6,7.5,22.4,7.4,34.1c0,3.3-0.2,6.5-0.4,9.4c-0.4,3.7-0.9,7.5-1.8,11.1l-1.5,6.6l-2.8,12.5h-47.5c4.4,2.6,8.4,5.5,12.1,8.6
			c16.7,14,25.2,34.1,25.3,59.6c0.4,15-2.6,30.2-8.7,43.9l0,0.1l0,0.1c-5.8,12.9-14.6,24.6-25.4,33.7l-0.1,0.1l-0.1,0.1
			c-3,2.5-5.7,4.5-8.3,6.3l-3.2,2.2l-3.9,0.5l-106.2,13.6l-3.5,0.5l-3.4-1.1l-3.3-1.1l-0.1,0l-0.1,0c-12.6-4.2-24-10.8-33.9-19.7
			l-0.1-0.1l-0.1-0.1c-8.9-8.3-16-18.7-20.6-30l0-0.1l0-0.1c-4.4-11.4-6.6-23.4-6.6-35.6c0-3.6,0.1-7.3,0.4-11
			c0.3-3.9,0.9-7.9,1.7-11.8l0,0l0,0l1.8-8.4l2.7-12.6h50.8c-1.4-1.1-2.8-2.2-4.2-3.4l-0.1-0.1l-0.1-0.1c-8-7.2-14.4-15.7-19.1-25.4
			l-0.1-0.2l-0.1-0.2c-5-11.2-7.5-23.6-7.2-35.9c0-13.1,2.5-25.9,7.7-38l0-0.1l0,0c5.2-12.1,13.3-23,23.4-31.5l0,0l0,0
			c10.8-9,23.1-15.7,36.6-19.8c14.6-4.5,29.7-6.8,45-6.8c0.8,0,1.5,0,2.3,0C270.1,103.4,270.8,103.4,271.4,103.4 M271.4,87.4
			c-0.4,0-0.7,0-1.1,0c-0.2,0-0.5,0-0.7,0c-0.8,0-1.6,0-2.4,0c-16.9,0-33.6,2.5-49.7,7.5c-15.5,4.8-29.7,12.4-42.1,22.8l-0.6,0.5
			l-0.1,0.1c-11.6,9.9-21,22.5-27.1,36.5l-0.1,0.2l-0.2,0.5c-5.9,14-8.9,28.8-8.9,44c-0.3,14.6,2.7,29.3,8.6,42.6l0,0.1l0,0.1
			l0.1,0.2l0.1,0.1l0.1,0.1l0.1,0.2l0,0l0,0c1,2.1,2.1,4.1,3.2,6.1h-16.1h-12.9l-2.7,12.6l-2.7,12.6l-1.8,8.2l0,0l-0.1,0.3
			c-0.9,4.5-1.6,9.1-2,13.6c-0.4,4.1-0.5,8.3-0.5,12.4c-0.1,14.1,2.5,27.8,7.5,41l0.2,0.5l0.2,0.5c5.4,13.3,13.7,25.5,24.2,35.3
			l0.4,0.4l0.5,0.4l0,0c11.5,10.2,24.7,17.9,39.3,22.8l0.1,0l0.1,0l0.1,0l0.1,0l3.3,1.1l3.4,1.1l3.4,1.1l3.5-0.4l3.5-0.4l106.2-13.6
			l3.9-0.5l3.9-0.5l3.2-2.2l3.2-2.2l0,0l0,0c2.9-2,5.9-4.3,9.1-6.9l0,0l0.3-0.2l0.3-0.2l0.1-0.1c12.6-10.7,22.8-24.3,29.6-39.3
			l0-0.1l0-0.1l0-0.1l0-0.1l0,0l0,0c6.9-15.8,10.4-33.3,10-50.5c0-14.8-2.6-28.3-7.7-40.2c-1.8-4.1-3.8-8.1-6.1-11.8h7.9h12.8
			l2.8-12.5l2.8-12.5l1.5-6.5c1-4.3,1.7-8.8,2.1-13.1c0.3-3.5,0.5-7.1,0.5-10.8c0.2-14.1-2.9-28.2-8.9-41
			c-5.8-12.5-14.6-23.8-25.2-32.6l0,0l-0.7-0.6c0,0-0.1-0.1-0.1-0.1l-0.3-0.3l0,0C341.6,104.6,329,98,315.3,94
			C301.1,89.6,286.3,87.4,271.4,87.4L271.4,87.4z"/>
	</g>
	<g>
		<g>
			<path class="st2" d="M350.3,160.7c-3.9-8.4-9.8-15.9-17-21.7c-8.1-6.5-17.3-11.3-27.2-14.3c-11.8-3.6-24.2-5.4-36.6-5.2
				c-14.4-0.2-28.8,1.8-42.6,6.1c-11.4,3.5-21.9,9.2-31.1,16.8c-8.2,6.9-14.7,15.7-19,25.6c-4.3,10.1-6.5,20.9-6.4,31.9
				c-0.2,10.1,1.8,20,5.8,29.2c3.7,7.8,9,14.7,15.4,20.5c6.5,5.6,13.9,10.1,21.9,13.2c8.1,3.1,16.6,5.3,25.2,6.6
				c18.1,2.7,30.9,6.6,38.6,11.7c7.5,4.6,11.9,12.8,11.5,21.6c0.4,10.9-4.7,21.3-13.5,27.7c-9.3,6.7-21.9,10-38,10.1
				c-14.8,0-26-3.3-33.4-9.9c-7.5-7.1-11.5-17.1-11-27.4c0-5.3,0.4-10.5,1.5-15.7l1.5-6.2h-48.4l-1.8,8.4c-0.7,3.3-1.2,6.6-1.5,9.9
				c-0.3,3.2-0.4,6.3-0.4,9.5c-0.1,10.2,1.8,20.4,5.5,29.9c3.7,9.2,9.4,17.5,16.6,24.3c8.2,7.3,17.9,12.9,28.3,16.4l3.3,1.1
				l106.3-13.7c2.5-1.8,5-3.7,7.3-5.6c9.1-7.7,16.3-17.3,21.2-28.1c5.1-11.7,7.6-24.5,7.3-37.3c0-20.8-6.5-36.6-19.6-47.5
				c-13-10.9-30.8-18.1-53.4-21.5c-16.1-2.7-27.7-6.5-34.9-11.3c-6.9-4.3-11-12-10.8-20.1c-0.1-4.8,1.2-9.5,3.7-13.5
				s5.9-7.3,9.9-9.7c4.4-2.7,9.2-4.6,14.3-5.7c5.4-1.2,10.9-1.9,16.4-1.8c14.1,0,24.6,3,31.4,9c6.8,5.8,10.5,14.3,10.2,23.2
				c0,3.3-0.4,6.6-1.1,9.9l-1.1,4.8h48.2l1.5-6.6c0.7-3,1.2-6.1,1.5-9.1c0.3-2.7,0.4-5.4,0.4-8C356.3,178.6,354.3,169.3,350.3,160.7
				z"/>
		</g>
		<path d="M267.3,119.4c0.8,0,1.5,0,2.3,0c0.6,0,1.3,0,1.9,0c11.7,0,23.4,1.8,34.6,5.2c9.9,2.9,19.2,7.8,27.2,14.3
			c7.2,5.9,13.1,13.3,17,21.7c4,8.5,6,17.8,5.8,27.2c0,2.7-0.1,5.4-0.4,8c-0.3,3.1-0.8,6.1-1.5,9.1l-1.5,6.6h-48.2l1.1-4.8
			c0.7-3.2,1.1-6.6,1.1-9.9c0.3-8.9-3.5-17.4-10.2-23.2c-6.8-6-17.3-9-31.4-9c-0.1,0-0.3,0-0.4,0c-5.4,0-10.8,0.6-16,1.8
			c-5,1.1-9.9,3-14.3,5.7c-4,2.4-7.4,5.7-9.9,9.7c-2.5,4.1-3.7,8.8-3.7,13.5c-0.2,8.1,3.9,15.8,10.8,20.1
			c7.2,4.8,18.8,8.6,34.9,11.3c22.6,3.4,40.4,10.6,53.4,21.5s19.6,26.8,19.6,47.5c0.3,12.8-2.2,25.5-7.3,37.3
			c-4.9,10.8-12.1,20.4-21.2,28.1c-2.3,1.9-4.8,3.8-7.3,5.6l-106.2,13.6l-3.3-1.1c-10.5-3.5-20.1-9.1-28.3-16.4
			c-7.3-6.8-12.9-15.1-16.6-24.3c-3.7-9.5-5.5-19.7-5.5-29.9c0-3.2,0.1-6.3,0.4-9.5c0.3-3.3,0.8-6.6,1.5-9.9l1.8-8.4h48.4l-1.5,6.2
			c-1,5.2-1.5,10.4-1.5,15.7c-0.6,10.3,3.5,20.3,11,27.4c7.5,6.6,18.6,9.9,33.4,9.9c16.1,0,28.8-3.4,38-10.1
			c8.9-6.4,13.9-16.8,13.5-27.7c0.3-8.7-4.1-17-11.5-21.6c-7.7-5.1-20.5-9-38.6-11.7c-8.6-1.2-17.1-3.4-25.2-6.6
			c-8-3.1-15.5-7.5-21.9-13.2c-6.4-5.8-11.6-12.7-15.4-20.5c-4.1-9.2-6.1-19.2-5.8-29.2c-0.1-11,2.1-21.8,6.4-31.9
			c4.3-9.9,10.8-18.6,19-25.6c9.1-7.6,19.7-13.3,31.1-16.8C240,121.4,253.6,119.4,267.3,119.4 M267.3,103.4c-15.3,0-30.4,2.3-45,6.8
			c-13.5,4.1-25.8,10.8-36.6,19.8l0,0l0,0c-10.1,8.5-18.2,19.4-23.4,31.5l0,0l0,0c-5.1,12.1-7.7,24.9-7.7,38
			c-0.3,12.3,2.2,24.7,7.2,35.9l0.1,0.2l0.1,0.2c4.7,9.7,11.1,18.2,19.1,25.4l0.1,0.1l0.1,0.1c1.4,1.2,2.8,2.3,4.2,3.4h-37.9h-12.9
			l-2.7,12.6l-1.8,8.4l0,0l0,0c-0.8,3.9-1.4,7.8-1.7,11.8c-0.3,3.6-0.5,7.3-0.4,11c-0.1,12.2,2.2,24.2,6.6,35.6v0.1v0.1
			c4.5,11.3,11.6,21.7,20.6,30l0.1,0.1l0.1,0.1c9.9,8.8,21.3,15.5,33.9,19.7h0.1h0.1l3.3,1.1l3.4,1.1l3.5-0.5L306,382.4l3.9-0.5
			l3.2-2.2c2.5-1.8,5.2-3.8,8.3-6.3l0.1-0.1l0.1-0.1c10.8-9.2,19.6-20.8,25.4-33.7v-0.1v-0.1c6-13.7,9-28.9,8.7-43.9
			c0-25.5-8.6-45.6-25.3-59.6c-3.7-3.1-7.8-6-12.1-8.6H353h12.8l2.8-12.5l1.5-6.5c0.8-3.7,1.4-7.4,1.8-11.1c0.3-3,0.4-6.2,0.4-9.4
			c0.1-11.7-2.4-23.5-7.3-34.1s-12.3-20.1-21.4-27.4l0,0l0,0c-9.7-7.8-20.7-13.5-32.6-17.1c-12.7-3.9-25.9-5.9-39.3-5.9
			c-0.6,0-1.3,0-1.9,0C268.8,103.4,268,103.4,267.3,103.4L267.3,103.4z M238.2,190.4c1.1-1.8,2.7-3.3,4.5-4.4l0,0l0,0
			c2.9-1.7,6-3,9.3-3.7h0.1h0.1c4.1-0.9,8.3-1.4,12.5-1.4h0.3l0,0l0,0c9.9,0,17.2,1.7,20.9,5l0.1,0.1l0.1,0.1
			c3.1,2.6,4.8,6.5,4.6,10.5v0.2v0.2c0,2.2-0.3,4.4-0.7,6.6l-1.1,4.6l-1.6,6.9c-5.8-1.6-11.9-2.8-18.3-3.8
			c-17.9-3-25.5-6.8-28.5-8.8l-0.2-0.1l-0.2-0.1c-2.1-1.3-3.4-3.7-3.3-6.1v-0.4v-0.4C236.9,193.5,237.3,191.8,238.2,190.4
			L238.2,190.4z M210.1,290.6l1.4-5.9l1.3-5.3c7.7,2.6,15.7,4.6,23.8,5.7c20.4,3,28.8,7,32,9.2l0.3,0.2l0.3,0.2
			c2.5,1.5,4,4.3,3.9,7.3v0.6v0.6c0.2,5.6-2.4,10.8-6.9,14.1c-6.4,4.6-16.1,7-28.7,7c-10.4,0-18.3-2-22.6-5.7
			c-4-3.8-6.1-9.2-5.8-14.7v-0.5v-0.5C208.9,298.7,209.3,294.6,210.1,290.6L210.1,290.6z"/>
	</g>
</g>
</svg>
