<svg width="657" height="80" viewBox="0 0 657 128" fill="none" xmlns="http://www.w3.org/2000/svg">
<rect x="79" width="495" height="115" rx="20" fill="#8D4545"/>
<path d="M89.7025 127.5H3.05176e-05L22.5 75.9999L3.05176e-05 27.4999H55.5C70 27.4999 80.5 25 79.5 9.5C82.5 2 95 0 100 0C100 21.5 98 28.5 98 28.5C98 28.5 92.7485 71.9444 98 102C99.2558 109.187 100.025 114.395 100.469 118.16C101.226 124.577 96.1644 127.5 89.7025 127.5Z" fill="#743838"/>
<path d="M567.293 127.5H656.995L634.495 75.9999L656.995 27.4999H601.495C586.995 27.4999 576.495 25 577.495 9.5C574.495 2 561.995 0 556.995 0C556.995 21.5 558.995 28.5 558.995 28.5C558.995 28.5 564.247 71.9444 558.995 102C557.739 109.187 556.97 114.395 556.526 118.16C555.769 124.577 560.831 127.5 567.293 127.5Z" fill="#743838"/>
</svg>
