<svg xmlns="http://www.w3.org/2000/svg" xml:space="preserve" id="Слой_1" x="0" y="0" style="enable-background:new 0 0 1896 2359" version="1.1" viewBox="0 0 1896 2359"><style>.st0,.st1{stroke:#000;stroke-width:12.8271;stroke-miterlimit:2.613}.st0{fill-rule:evenodd;clip-rule:evenodd;fill:#edc95e}.st1{fill:none}.st2{fill:#edc95e}.st2,.st3,.st4{fill-rule:evenodd;clip-rule:evenodd}.st4{fill:#ca3132}</style><path d="M1481.3 2018.8c-141.4 128.8-263 198.2-519.4 332.7C723.3 2243 567.5 2136 432.5 2030.6c-186.6-145.3-320.7-381.3-332.3-526L7 127.3c630.8-164 1301.8-160.2 1882.3 11l-94.5 1363.4c-12.1 123.5-122.5 363.6-313.5 517.1z" class="st0"/><path d="M1686.9 1456.6 1772.2 239C1272.6 79.9 674.3 77.6 123 222.3l87 1233.5c9.1 128.2 101.4 324.2 278.4 474.4 106.5 90.5 315.2 242.3 469.4 300.5 177.6-89.9 339.1-201.6 467-311.8 158.8-144.6 252.5-324.3 262.1-462.3z" class="st0"/><path d="M1403.2 1886.7c-122.7 105.8-287.9 224.3-446.6 300-141.7-43.9-351.2-205.5-452-292.4-175.8-151.8-247.3-310.7-258.1-460.9L161 256.1c524.9-137.8 1097.8-137.8 1573.9 13.8l-84.5 1161.7c-12.1 154.4-84 302.1-247.2 455.1z" class="st0"/><path d="m199 278.9 16.9 202.9L199 278.9zm1478.6 222 18.7-206.5-18.7 206.5zm-1461.7-19C717 356.7 1241.9 369.2 1677.6 501M199 278.9C696.7 148.5 1244.9 156 1696.3 294.4" class="st1"/><path d="M368.6 328.8c11.4-2.6 9.8-23-2.4-20.5L266 332.5l2.4 21 100.2-24.7z" class="st2"/><path d="M653.1 1000V880.6l.1-50.3.1-24.4 282.9-.2-.2-386.6m-717 92.3 52.8 726.1h381.4V1000M219 511.4c255.8-71.4 496.9-92.3 717-92.3" class="st1"/><path d="M652.7 869c0-2.6-31.3-4.9-46.9-3-41.3 4.9-144.7 37.4-188.4 67.5-1 2.6-.8 16.9-3.7 23.6-2.6 6.1-9.1 12.4-15.4 15.1-11.2 4.9-24.2-10-29.9-7.9-5.9 2.2-18.5 7.3-32.1-2.4-6.1-4.3-9.2-16.5-7.1-25.6 2-6.5 7.5-11.6 11.8-15.7 3.9-3.9 1.2-19.1 15.3-28.1 9.8-6.3 23.4-1.2 33.9 4.3 2.4-.8 3.9-1.8 5.7-3.3 1.4-4.2 3.5-16.7 5.5-26.6 2.4-10.6 3.2-17.5 6.3-27.3 7.9-23.8 26.8-58 46.5-75.9 15.6-13.8 39.8-24.8 57.7-23.6-1.8 2.7-24 22.6-30.5 31.5-15.4 20.4-29.5 51.9-36.2 78.6-2.4 9-2.4 12.4-.8 18.3 14.6-6.5 33.5-12.8 44.5-16.3 4.3-9.6 6.7-20.6 10.4-29.5 5.9-13.8 9.7-19.7 15.7-29.3 17.5-27.1 54.5-53.9 81.9-53.3-9.1 7.9-28 27.5-35.4 39.3-6.1 9.8-11.8 20.5-16.1 31.5-3.7 9.8-4.9 17.1-5.9 25.2 14.2-4.1 28.2-7.1 37.2-7.7 6.1-3.3 8.1-9.8 11.4-15.9 10.4-19.5 30.9-41.3 43.9-48.4 10.4-5.7 25.8-11.2 36.8-7.7-11.8 8.8-24.2 23-29.7 31.5-5.7 9-15 26.6-14.6 34.8 9.7.8 22.2.3 27.8-1.1l.4 47.4z" class="st3"/><path d="M527.3 550.5c15-20.8 54.3-52.3 84.7-50.5-16.5 14.3-31.1 30.3-41.3 47.2-13.4 21.8-24.2 49.2-26.6 70.2 10-3.7 33.7-10.4 47.2-13.4 12-26.1 27.8-55.1 47.3-70.6 14-11.2 34-20.8 52.8-18.7-4.3 6.1-11.4 10.8-16.7 15.7-9.7 8.4-16.3 19.9-21.7 31.5-3.9 8.7-10.6 34.6-10.8 35.8 13.6-.2 37.6 1.4 42.7 2.9 16-20.8 50.8-51.1 92.6-44.2-18.1 9.8-51.2 38.5-49.2 54.3 27.2 17.5 67.7 54.3 69.5 88.3-18.5-19.3-49-38.3-64.4-43.6-36.8-13-80.7-14.7-117.3-8.1-76.4 14.4-143.9 47.4-208.7 86.1-1.6 10.4-7.3 26.1-12 31.5-4.7 5.3-11.8 10.4-19.5 11.6-9.6 1.6-19.5-2.4-27.8-6.7-5.3-3-19.3.8-28.1-4-6.1-3.1-15.6-12-13-25.9 2.2-12.4 14.6-19.9 16.3-31.7 2.6-17.3 15.1-24.8 21.7-25.9 7.1-1.4 14.4 1 20.9 3.9 2.8 1.4 5.7 3.7 8.3 4.5 2.6-.8 6.3-3.9 8.5-4.9.6-2 7.1-38 10.6-53.7 3.5-15.7 9.6-29.1 14.8-43.8 15.4-43.6 62.8-87.7 100.8-85.3-2 2.8-14.2 11.6-31.1 31.3-27.4 32.1-34.3 66.1-44.5 124.5 21.1-9.8 39.4-16.9 58.5-23.8 4.5-18.1 10.6-35.8 18.1-52.9 4.6-11.1 10.6-21.9 17.4-31.6z" class="st3"/><path d="m1674.8 598.9-703.7.6.6 206.8 687.3-.4 15.8-207z" class="st4"/><path d="M1132.9 1524.2c-4.9 19.8-7.3 53.3-6.9 54.1 12-4.9 23.2-9.3 33.1-12.2.8-1.2 14.8-31.7 21.1-39.9 14.8-22.8 34.6-42.3 58.8-55.3 15.2-7.7 33.7-14.8 50-8.6-21.5 10.2-38.2 28.7-48.3 39.3-9.3 9.8-20.1 24.4-25 39.3-.8 2.6-1.6 7.9-1.6 7.9 10-3.1 42.1-7.9 55.5-9.7 1.6-.2 5.7-9 8.8-13.4 4-5.3 6.3-8.6 12.6-15.7 16.2-17.5 43.5-36.2 70.1-32.1-14.6 9.3-30.5 24-43.3 47.2-1.8 3.5-4.1 8.5-3.1 10.6 3.9.8 23.4.4 35.2 1.8 13.6-8.5 28-16 43.5-19.3 17.5-4 40.3-.8 49.4 7.4-10.6-.6-20.7 1.4-30.3 5.1-5.5 2.2-16.5 7.3-20.7 14.4 10.5 2.9 27.6 14.2 38.4 23.2 7.5 6.3 16.5 15.3 22.2 23.6 14.4 19.5 17.3 54.4 9.7 64.9-2.2-6.1-4.5-12.2-7.8-17.9-6.9-11.6-17.8-24.2-27-31.1-44.7-34-109.1-35.8-161.6-25.2-45.1 9.3-126.4 26.2-179.6 63.9 1.4 6.7-2.8 17.9-8.9 22.3-8.1 5.9-19.5-2.2-25.4 1-8.1 4.1-18.1 1.6-22.2-.2-7.1-3-11.8-10.2-12.4-18.7-.6-6.7 5.9-14.8 7.3-22 .6-3-2.6-17.5 9.8-25 2.4-1.4 9.5-3.9 14.4-3.1 4.9 1 8.9 4.1 13.8 4.9 6.7-2.4 13.1-5.5 19.1-9.2 4-15.2 6.9-32.7 8.9-48.2l42.4-24.1z" class="st3"/><path d="M1612.5 1430.1c-12.8 176.6-96.5 299.1-220.7 420-76.8 74.9-257.1 211.4-421.5 294.7l-.2-565.7c39.2-1.6 85.2-13.4 120.5-30.9l42.2-24.6c87.6-69.1 117.9-163.5 117.9-254.8m361.7 161.4 11.6-160.8-373.5-.4" class="st1"/><path d="M1139.6 1733.4c5.9-9 13-22.2 16.5-27.9 12.4-19.8 30.3-34.6 42.5-40.3 16.7-8.1 43.7-12.8 55.7-6.9-13.2 3.2-23.2 9.3-32.5 15.7-9.5 6.5-28 23.4-32.7 30.5-5.3 7.9-8.9 14.9-10.2 18.7 14.9-3.3 32.9-6.1 42.1-6.1 6.7-8.4 24.4-28.7 37.6-38.1 10.6-7.5 33.3-14.9 47.4-8.8-13.6 4.3-37.6 23.2-46.5 36.8-2 3.2-3.8 6.5-4.1 8.3 7.3.6 21.1 2 28.5 3 .8 0 21.3-12.6 30.5-15.2 12-3.3 31.7-7.6 44.1 5.5-9 .2-17.5 1-24.2 3.9-9.6 4.3-13.8 7.5-18.1 13.5 18.9 10 38.6 20.5 50.2 39 4.1 6.5 10.4 21.8 6.9 31.8-5.9-7.5-14-14.7-20.5-18.5-9.3-5.3-15.9-10.4-27.2-14.8-35.2-13.2-81.3-16.7-118.1-11.8-47.6 6.1-106.1 29.7-136 50.2 2 9.2-2.6 20-7.9 22.6-11.2 5.7-22-3.9-24-3.3-3 1-12 4.1-18.5 1.4-6.5-2.6-10.6-14-8.1-21.3 2-5.5 9.8-13.4 9.8-13.4-1.2-12 6.7-19.3 17.5-20.7 6.1-.6 10.4 4.2 15.3 5.1 4.5-2.2 7.7-3.7 10.1-4.9 2.8-9.8 6.9-19.9 9.6-28.1 4.5-14 11.2-26.3 19.7-39.3 12.2-18.7 33.9-36.4 59.7-36.8-7.9 6.1-12.4 9.4-17.3 15.6-8.5 10.6-15 20.2-20.9 31.6-5.3 10-10.2 25-11 38.1 9.8-4.4 24.3-11.1 34.1-15.1zm-3.8 106.4c6.7-2.7 13.8-4.7 20.9-3.9-16.5 10.6-31.7 26.2-35.8 44.6-.4 2-.4 5.9 1.4 7.1 4.7-1.2 16.7-3.8 19.9-5.3 2-4.1 6.9-10.6 10.2-14.9 11.8-15.7 28.8-31.5 52.2-25.6-15.3 6.9-24.2 16.5-30.9 28.7-1.2 2.2-2 6.3-.4 6.3 4 0 18.9-.6 21.1-.6 6.9-6.1 27-17.7 40.8-13.4a68.3 68.3 0 0 0-18.7 12.8c-1.4 1.6-3.2 3.5-3.5 5.9 12.2 6.1 23 13 33.1 21.6 5.3 4.5 13 13 17.7 27.5-11.8-10.2-50.4-28.5-71.5-29.5-13.8-.6-30.9 2-39.6 3.9-33.3 7.5-67.6 22.4-96.9 39.1.2 5.7-.8 12.6-7.3 17.9-4.3 3.5-13.8 5.3-17.3.2-1.9-2.8-14.8.2-17.5-3.4 0 0-3.3-5.1-3.8-11.2-.4-6.5 4-10.4 7.5-13.8 1-1.2.8-12.2 9-15.9 5.1-2.4 10.3-1.5 14.6 1.2 1.8-1 3.1-2 4.3-2.7 1-12.8 3.4-24.6 8.1-37.4 6.5-18.1 27.8-40.1 46.1-39.3-12.4 13.4-22.4 31.9-25.8 47.2-1 4.9-1.4 14.5-1.4 19.1 4.4-2.7 9-5 13.8-6.9 2-4.7 7.7-16.5 10.6-21.8 7.5-13.7 24.2-31.4 39.1-37.5z" class="st3"/><path d="M290.6 1451c2.4 68.4 30.3 151 68.7 208.2H932l-1.2-79.8c-73.6 0-186.1-48.6-230.6-128l-409.6-.4z" class="st4"/><path d="M684.3 1272.5c0 363.8 532.8 363.8 532.8 3.8l.2-437.7-533-.2v434.1" class="st1"/><path d="M1124.1 884.9H1113v20.7h8.1c13.5-.1 13.2-20.7 3-20.7z" class="st2"/><path d="m1250.9 1234.4 376.1-.2 16.7-207.6-392.8.2v207.6zm-317.2 646.7-387.9-.8c79.9 71.8 265 206.1 386.7 260.5l1.2-259.7z" class="st4"/><path d="M653.1 1062.3v33.3c-15.4-11.4-86.6-19.7-130.5-2.6-10.6 4.1-45.3 19.1-61 31.5l-44.3 35c-4.3 3.5-4.7 11.2-4.7 17.1 0 13-15.2 22.8-23.6 20-6.9-2.4-16.3-3.7-25-1.8-9.3 2-17.5-9.6-18.3-16.3-1.2-8.3 5.3-19.1 5.7-22.6.4-3.3-1.8-16.5 10.4-24.6 5.5-3.5 13.2-3.4 18.7-.4 1.6.9 3.5 1.2 5.3.8 2-.8 7.3-5.5 8.7-6.7.6-7.8-.6-20.3.2-27.1 1.8-13.4 2.6-21 6.7-34 3.5-11.2 11.2-27.5 16.9-36.8 10.2-16.7 30.5-32.8 45.7-31.5-5.9 7.9-7.9 12-12.2 20.1-8.1 14.7-15.6 39.1-19.1 55.6-2.4 10.6-3.6 18.9-3 30.1 11.6-8.7 23.8-15.7 31.9-20.3 3.9-19.5 10.5-38.4 19.7-56 9.8-18.7 36.4-38.9 53.7-37.4-16.3 17.7-28 42.3-32.3 58-1.8 6.3-3.9 13.6-3 17.5 6.5-3.5 19.9-7.1 26.4-7.7 4.3-10.8 10.2-23.8 15.2-31.4 15.4-23.6 39.6-38 53.4-37.4-10.8 14.5-20.1 27.7-26.8 47.2-2 5.7-3 11.8-3 14.8 8.5-1.4 21.6-1.4 27-1.4 14.3-12.9 12.9-16.4 28.8-28.5 9.8-7.7 28.1-18.1 32.5-18.9v23.2c-7.5 6.7-22.6 21.1-25.6 28.6 6.4 2.5 19.4 6.5 25.5 10.6z" class="st3"/><path d="m1068.1 920.3-7.1-31.1-6.7 31.1h13.8z" class="st2"/><path d="m1657 826.6-404.7.2V1006l392.3.5 11.9-172.8.5-7.1zm18.6-247.4 3.6-58.4c-254-78.4-488.8-101.9-708.9-101.9l-.1 159.3 705.4 1zm-985 850.7c-27.5-50.8-38.4-106.6-38.4-161.2l-373.5.4 11.6 160.8h400.3zM932.3 1854l.1-167.6-558.9-.6c36.3 57.9 82.9 111.1 137.2 164 1.5 1.5 3 3 4.6 4.5l417-.3z" class="st3"/><path d="M343.4 391.8v-83.6h33c6.3 0 11.7 1.2 16.2 3.6 4.5 2.4 7.9 5.7 10.2 10 2.4 4.2 3.6 9.1 3.6 14.7s-1.2 10.5-3.6 14.7c-2.4 4.2-5.9 7.6-10.4 9.9-4.5 2.4-10 3.6-16.4 3.6h-21v-14.2h18.2c3.4 0 6.2-.6 8.4-1.8 2.2-1.2 3.9-2.8 5-4.9 1.1-2.1 1.7-4.6 1.7-7.3 0-2.8-.6-5.2-1.7-7.3-1.1-2.1-2.8-3.7-5-4.9-2.2-1.2-5.1-1.8-8.5-1.8h-11.9v69.2h-17.8zM579 357.5v-83.6h33c6.3 0 11.7 1.1 16.2 3.4 4.5 2.2 7.9 5.4 10.3 9.5 2.4 4.1 3.6 8.9 3.6 14.4 0 5.6-1.2 10.3-3.6 14.3-2.4 4-5.9 7-10.4 9.1-4.5 2.1-10 3.2-16.4 3.2h-22.1v-14.2h19.2c3.4 0 6.2-.5 8.4-1.4 2.2-.9 3.9-2.3 5-4.2 1.1-1.9 1.7-4.2 1.7-6.9 0-2.8-.6-5.1-1.7-7-1.1-1.9-2.8-3.3-5-4.3s-5-1.5-8.5-1.5h-11.9v69.2H579zm45.1-38 20.8 38.1h-19.5l-20.3-38.1h19zM871.5 296.3c0 9.1-1.7 16.9-5.2 23.3-3.4 6.4-8.1 11.3-14 14.7-5.9 3.3-12.6 5-19.9 5-7.4 0-14.1-1.7-20-5.1-5.9-3.4-10.6-8.3-14-14.7-3.4-6.4-5.1-14.1-5.1-23.2s1.7-16.9 5.1-23.3c3.4-6.4 8.1-11.3 14-14.6 5.9-3.4 12.6-5.1 20-5.1s14 1.7 19.9 5.1c5.9 3.3 10.6 8.2 14 14.6 3.5 6.4 5.2 14.2 5.2 23.3zm-17.9 0c0-5.9-.9-10.9-2.7-14.9-1.7-4.1-4.2-7.1-7.4-9.2-3.2-2.1-6.9-3.1-11.2-3.1-4.3 0-8 1-11.2 3.1-3.2 2.1-5.7 5.2-7.4 9.2-1.7 4.1-2.6 9-2.6 14.9s.9 10.9 2.6 14.9c1.8 4.1 4.2 7.1 7.4 9.2 3.2 2.1 6.9 3.1 11.2 3.1 4.3 0 8-1 11.2-3.1 3.2-2.1 5.7-5.2 7.4-9.2 1.8-4 2.7-9 2.7-14.9zM1083.5 283.1c-.3-3.3-1.7-5.9-4.2-7.7-2.5-1.8-5.8-2.7-10.1-2.7-2.9 0-5.3.4-7.3 1.2-2 .8-3.5 1.9-4.6 3.3-1 1.4-1.5 3-1.5 4.8-.1 1.5.3 2.8.9 3.9.7 1.1 1.7 2.1 2.9 2.9 1.2.8 2.6 1.5 4.3 2.1 1.6.6 3.3 1.1 5.1 1.5l7.5 1.8c3.6.8 7 1.9 10 3.3 3.1 1.4 5.7 3 7.9 5s4 4.3 5.2 7c1.3 2.7 1.9 5.8 1.9 9.3 0 5.1-1.3 9.6-3.9 13.3-2.6 3.7-6.3 6.6-11.1 8.7-4.8 2-10.6 3.1-17.4 3.1-6.8 0-12.6-1-17.6-3.1-5-2.1-8.9-5.1-11.7-9.2-2.8-4.1-4.2-9.1-4.4-15.1h17.1c.2 2.8 1 5.1 2.4 7 1.5 1.9 3.4 3.3 5.8 4.2 2.4.9 5.2 1.4 8.2 1.4 3 0 5.6-.4 7.8-1.3s4-2.1 5.2-3.6c1.2-1.6 1.8-3.3 1.8-5.4 0-1.9-.6-3.5-1.7-4.7-1.1-1.3-2.7-2.4-4.8-3.3-2.1-.9-4.7-1.7-7.7-2.5l-9.1-2.3c-7.1-1.7-12.6-4.4-16.7-8-4.1-3.6-6.1-8.6-6.1-14.7 0-5.1 1.3-9.5 4-13.3 2.8-3.8 6.5-6.7 11.3-8.9s10.2-3.2 16.3-3.2c6.2 0 11.6 1.1 16.3 3.2 4.7 2.1 8.3 5.1 10.9 8.9 2.6 3.8 3.9 8.2 4 13.1h-16.9zM1261.3 367.5v-83.6h17.7v34.5h35.9v-34.5h17.6v83.6h-17.6V333H1279v34.5h-17.7zM1500 402v-83.6h56.4V333h-38.7v19.9h35.8v14.6h-35.8v20h38.8V402H1500z"/><defs><filter id="Adobe_OpacityMaskFilter" width="373.1" height="607.1" x="790.2" y="884.8" filterUnits="userSpaceOnUse"><feColorMatrix values="1 0 0 0 0 0 1 0 0 0 0 0 1 0 0 0 0 0 1 0"/></filter></defs><mask id="mask0_3_141_00000061459046250811813610000007559365697180099972_" width="373.1" height="607.1" x="790.2" y="884.8" maskUnits="userSpaceOnUse"><path d="M578 806h746.7v746.7H578V806z" style="fill:#fff;filter:url(#Adobe_OpacityMaskFilter)"/></mask><g style="mask:url(#mask0_3_141_00000061459046250811813610000007559365697180099972_)"><path d="M1085.4 1067.6s35.6 86.4 0 168.5c-34.7 79.9-125.7 142.4-104.6 170.7-16-36.3 85.7-61.8 138.8-145.3 36.1-57.1 28.2-151.1-34.2-193.9z"/><path d="M1146.4 1167.1s29.8 94.4-107.5 180.9c-12.4 9.4-20.3 16.7-28.3 32.7 24-34.2 77-29.8 127.9-102.4 50.7-72.7 7.9-111.2 7.9-111.2zM1025.1 1265.2c-71 80.3-101 152.6-101 152.6s12.8-66.7 87.2-151.1c87.7-99.5 46.5-195.8 32.9-221.5-1.3-2.2-2.5-4.4-3.8-6.6 0 0 1.5 2.3 3.8 6.6 31.6 56.3 55.6 135.4-19.1 220zm-109.7 211.4c-44.3-68.3-.7-165.6 99.5-260.8 0 0-146.8 150.3-99.5 260.8zm-9.8-411.2c20.3-20.3 35.2-23.6 47.2-10.9-24.4-8.7-47.2 10.9-47.2 10.9zm23.8 2.6c2.1-1.2 4.5-.8 5.4.7.9 1.6-.1 3.8-2.2 5-2.1 1.2-4.5.8-5.4-.7-.9-1.6.1-3.8 2.2-5zm-18.6 18.9s.9-4 3-8.2c2.4 3.4 6.4 5.7 10.9 5.7 7.1 0 12.9-5.5 13.2-12.5 1.6 1.1 2.5 2 2.5 2s-3.5 18.4-29.6 13zm-26.7 143.4c-4 21.8-2.9 71.2-13.8 79.5 13.1-40 3.3-61 12-87.2 8.7-26.2 51.6-90.4 51.6-90.4s-45.8 76.3-49.8 98.1zm-37 42.9c-12 7.6-10.9 27.6 1.8 38.5-23.2-5.8-21.1-49.4-5.4-54.5 15.6-5.1 25.1 16 25.1 16s-9.5-7.7-21.5 0zm-29.8-21.8c7.3-25.4 29.1-155.5 29.1-155.5s-8.8 101-29.1 155.5zm72.2-301.3s-9.7 52.8-57.6 87.7c19.8-17 50.3-60.6 57.6-87.7zm-37.3-15.5c-1.1 13.8-17.4 29.8-17.4 29.8s11.6-21.8 13.8-28c2.2-6.2-9.8-25.1-9.8-25.1s-6.5 13.8-7.6 27.6c-1.8-11.6 6.2-38.1 6.2-38.1s15.9 20 14.8 33.8zm54.4 69.8c16.7-19.6 12.4-34.1 12.4-34.1 13.8 35.6-51.6 53.8-52.3 91.5-14.5-20.4 23.2-37.8 39.9-57.4zm33.1-97.4c12.8 7.6 12.1 43.3 11.5 54.6l-.4.4c-.6-10.1-3.1-42-10.4-48.1-8 21.8-4.4 53.8 5.1 64.7-15.7-12.2-17.8-49.1-5.8-71.6zm103.1 97.6c10.3-2.2 25.7-2.8 36.7 7.8-22.5-42.1-71.2-45.8-71.2-45.8s17.4-.7 29.1.7c-29.4-20.5-67.2-16.2-75.9-14.8.6-12.7-.4-33-10.1-52.2-15.5-31-23.2-5.8-23.2-5.8s-7.3 15.5-9.7 30.5c-.2 1-.3 2-.5 2.9-2.9-9.9-10.1-22.9-28.1-29.1 9.7 7.3 18.4 28.6 18.4 28.6s-17.4-19.9-47.9-8.2c7.9-.4 8.4 17.5 8.3 24.2h-.1c-20.8-42.6-29.5-52.8-32.9-51.8-3.4 1-23.2 53.8-2.9 88.6-22.3 31-27.1 48.9-42.6 53.8 9.9-.4 19.1-4.3 26.4-8.6 22.7-16.9 35.6-50.5 35.6-50.5.9 11.4-10.2 37.1-33.3 50.3-9.1 9.7-18.5 24.8-13.2 42.2 5.3-16.9 13.6-21.8 13.6-21.8s-16.5 17.9-9.2 37.3c7.3 19.4 13.6 49.9 13.6 49.9s-12.6 59.1-11.6 81.4c-17.9 36.8-32.9 61.5-2.4 86.7 5.3 27.6 10.2 33.4 21.3 33.4h1.7c43.7 14.6 59-53.3 60.8-62.5.1-.3.1-.7.2-1 0 0-.1.4-.2 1-9.9 51.3-32.7 78.8-60.8 62.5 0 0 1.5 14.2 26.9 10.9 25.4-3.3 32-51.2 41-69.7 9.1-18.5 32.3-41.4 42.5-73.4 4.8-4.2 10-7.9 15-12.2 52.9-73.6 18.5-197.7 18.5-197.7 32.1 103.9 6.7 163.1-3.6 181.3-40.5 76-163.5 265.3-48.7 318.5-34.9-89.3 125-169.3 158.8-273.8 29.7-92.9-3.7-179.6-40.3-213.6z"/></g></svg>