<svg width="24" height="24" viewBox="0 0 24 24" fill="none" xmlns="http://www.w3.org/2000/svg">
<path d="M13.75 3.5H10.25C10.0511 3.5 9.86032 3.57902 9.71967 3.71967C9.57902 3.86032 9.5 4.05109 9.5 4.25C9.5 4.44891 9.57902 4.63968 9.71967 4.78033C9.86032 4.92098 10.0511 5 10.25 5H13.75C13.9489 5 14.1397 4.92098 14.2803 4.78033C14.421 4.63968 14.5 4.44891 14.5 4.25C14.5 4.05109 14.421 3.86032 14.2803 3.71967C14.1397 3.57902 13.9489 3.5 13.75 3.5ZM10.25 2H13.75C14.3034 2.00002 14.8375 2.20401 15.25 2.57297C15.6625 2.94194 15.9245 3.44999 15.986 4H17.75C18.0455 4 18.3381 4.0582 18.611 4.17127C18.884 4.28434 19.1321 4.45008 19.341 4.65901C19.5499 4.86794 19.7157 5.11598 19.8287 5.38896C19.9418 5.66194 20 5.95453 20 6.25V19.75C20 20.0455 19.9418 20.3381 19.8287 20.611C19.7157 20.884 19.5499 21.1321 19.341 21.341C19.1321 21.5499 18.884 21.7157 18.611 21.8287C18.3381 21.9418 18.0455 22 17.75 22H6.25C5.65326 22 5.08097 21.7629 4.65901 21.341C4.23705 20.919 4 20.3467 4 19.75V6.25C4 5.65326 4.23705 5.08097 4.65901 4.65901C5.08097 4.23705 5.65326 4 6.25 4H8.014C8.07549 3.44999 8.33754 2.94194 8.75004 2.57297C9.16255 2.20401 9.69656 2.00002 10.25 2Z" fill="#212121"/>
</svg>
