<svg width="24" height="24" viewBox="0 0 24 24" fill="none" xmlns="http://www.w3.org/2000/svg">
<path d="M10.25 2H13.75C14.3034 2.00002 14.8375 2.20401 15.25 2.57297C15.6625 2.94194 15.9245 3.44999 15.986 4H17.75C18.0455 4 18.3381 4.0582 18.611 4.17127C18.884 4.28434 19.1321 4.45008 19.341 4.65901C19.5499 4.86794 19.7157 5.11598 19.8287 5.38896C19.9418 5.66194 20 5.95453 20 6.25V11.498C18.6211 10.9228 17.0862 10.8402 15.6536 11.264C14.221 11.6878 12.978 12.5922 12.134 13.825C11.29 15.0578 10.8965 16.5436 11.0196 18.0326C11.1427 19.5215 11.775 20.9226 12.81 22H6.25C5.65326 22 5.08097 21.7629 4.65901 21.341C4.23705 20.919 4 20.3467 4 19.75V6.25C4 5.65326 4.23705 5.08097 4.65901 4.65901C5.08097 4.23705 5.65326 4 6.25 4H8.014C8.07549 3.44999 8.33754 2.94194 8.75004 2.57297C9.16255 2.20401 9.69656 2.00002 10.25 2ZM13.75 3.5H10.25C10.0511 3.5 9.86032 3.57902 9.71967 3.71967C9.57902 3.86032 9.5 4.05109 9.5 4.25C9.5 4.44891 9.57902 4.63968 9.71967 4.78033C9.86032 4.92098 10.0511 5 10.25 5H13.75C13.9489 5 14.1397 4.92098 14.2803 4.78033C14.421 4.63968 14.5 4.44891 14.5 4.25C14.5 4.05109 14.421 3.86032 14.2803 3.71967C14.1397 3.57902 13.9489 3.5 13.75 3.5ZM23 17.5C23 18.9587 22.4205 20.3576 21.3891 21.3891C20.3576 22.4205 18.9587 23 17.5 23C16.0413 23 14.6424 22.4205 13.6109 21.3891C12.5795 20.3576 12 18.9587 12 17.5C12 16.0413 12.5795 14.6424 13.6109 13.6109C14.6424 12.5795 16.0413 12 17.5 12C18.9587 12 20.3576 12.5795 21.3891 13.6109C22.4205 14.6424 23 16.0413 23 17.5ZM20.854 15.146C20.8076 15.0994 20.7524 15.0625 20.6916 15.0373C20.6309 15.0121 20.5658 14.9991 20.5 14.9991C20.4342 14.9991 20.3691 15.0121 20.3084 15.0373C20.2476 15.0625 20.1924 15.0994 20.146 15.146L16.5 18.793L14.854 17.146C14.7601 17.0521 14.6328 16.9994 14.5 16.9994C14.3672 16.9994 14.2399 17.0521 14.146 17.146C14.0521 17.2399 13.9994 17.3672 13.9994 17.5C13.9994 17.6328 14.0521 17.7601 14.146 17.854L16.146 19.854C16.1924 19.9006 16.2476 19.9375 16.3084 19.9627C16.3691 19.9879 16.4342 20.0009 16.5 20.0009C16.5658 20.0009 16.6309 19.9879 16.6916 19.9627C16.7524 19.9375 16.8076 19.9006 16.854 19.854L20.854 15.854C20.9006 15.8076 20.9375 15.7524 20.9627 15.6916C20.9879 15.6309 21.0009 15.5658 21.0009 15.5C21.0009 15.4342 20.9879 15.3691 20.9627 15.3084C20.9375 15.2476 20.9006 15.1924 20.854 15.146Z" fill="#212121"/>
</svg>
