<svg width="24" height="24" viewBox="0 0 24 24" fill="none" xmlns="http://www.w3.org/2000/svg">
<path d="M12.0001 4.7502C10.5302 4.75026 9.09498 5.19713 7.88484 6.03157C6.67469 6.86601 5.74678 8.04859 5.22415 9.42248C4.70151 10.7964 4.60885 12.2967 4.95844 13.7245C5.30804 15.1522 6.08337 16.44 7.18164 17.417C8.2799 18.394 9.6492 19.0141 11.108 19.1951C12.5667 19.376 14.046 19.1093 15.3497 18.4302C16.6534 17.7511 17.7199 16.6918 18.4077 15.3927C19.0955 14.0936 19.3722 12.6161 19.2011 11.1562C19.1331 10.5682 19.5591 10.0002 20.1511 10.0002C20.6661 10.0002 21.1191 10.3582 21.1811 10.8702C21.4431 12.9972 20.9584 15.1493 19.8098 16.9586C18.6611 18.7679 16.9199 20.1222 14.8835 20.7902C12.8472 21.4582 10.642 21.3983 8.6449 20.6209C6.64777 19.8434 4.98256 18.3966 3.93379 16.5276C2.88501 14.6587 2.51775 12.4835 2.89475 10.3738C3.27175 8.2641 4.36961 6.35076 6.00077 4.96069C7.63193 3.57061 9.69516 2.79007 11.838 2.75241C13.9807 2.71474 16.0701 3.4223 17.7491 4.7542V4.2502C17.7491 3.98485 17.8545 3.73037 18.0422 3.54274C18.2298 3.35511 18.4843 3.2497 18.7496 3.2497C19.015 3.2497 19.2695 3.35511 19.4571 3.54274C19.6447 3.73037 19.7501 3.98485 19.7501 4.2502V6.9482L19.7841 7.0002H19.7501V7.2502C19.7501 7.51541 19.6448 7.76977 19.4572 7.9573C19.2697 8.14484 19.0153 8.2502 18.7501 8.2502H15.7501C15.4849 8.2502 15.2306 8.14484 15.043 7.9573C14.8555 7.76977 14.7501 7.51541 14.7501 7.2502C14.7501 6.98498 14.8555 6.73063 15.043 6.54309C15.2306 6.35555 15.4849 6.2502 15.7501 6.2502H16.4161C15.1506 5.27538 13.5975 4.74784 12.0001 4.7502Z" fill="#212121"/>
</svg>
