<svg width="24" height="24" viewBox="0 0 24 24" fill="none" xmlns="http://www.w3.org/2000/svg">
<path d="M2.22022 2.21983C2.0932 2.34682 2.01597 2.51517 2.00258 2.69428C1.98918 2.87339 2.04051 3.05136 2.14722 3.19583L2.22022 3.27983L6.25422 7.31483C4.28725 8.69346 2.88311 10.7349 2.29922 13.0648C2.2542 13.2566 2.28646 13.4584 2.38903 13.6267C2.49159 13.7949 2.65623 13.916 2.84736 13.9638C3.03848 14.0116 3.24075 13.9823 3.41044 13.8822C3.58013 13.7821 3.70362 13.6192 3.75422 13.4288C4.27312 11.3608 5.55112 9.56378 7.33422 8.39483L9.14422 10.2048C8.42122 10.9603 8.02281 11.9689 8.03434 13.0146C8.04588 14.0602 8.46643 15.0598 9.20592 15.7991C9.94542 16.5385 10.945 16.9589 11.9907 16.9702C13.0363 16.9815 14.0449 16.583 14.8002 15.8598L20.7192 21.7798C20.853 21.914 21.0327 21.9926 21.2221 21.9997C21.4115 22.0068 21.5965 21.942 21.7401 21.8182C21.8836 21.6945 21.9749 21.5209 21.9957 21.3326C22.0166 21.1442 21.9653 20.9549 21.8522 20.8028L21.7792 20.7188L15.6662 14.6048L15.6672 14.6028L8.71722 7.65683L8.71922 7.65483L7.58622 6.52483L3.28022 2.21983C3.1396 2.07938 2.94897 2.00049 2.75022 2.00049C2.55147 2.00049 2.36085 2.07938 2.22022 2.21983ZM12.0002 5.49983C11.0002 5.49983 10.0302 5.64783 9.11122 5.92483L10.3482 7.16083C12.4878 6.73719 14.7083 7.15191 16.5507 8.31926C18.3931 9.4866 19.7165 11.3173 20.2472 13.4328C20.299 13.6218 20.4227 13.7829 20.5918 13.8818C20.7609 13.9808 20.962 14.0096 21.1521 13.9622C21.3421 13.9148 21.5061 13.7948 21.6089 13.6281C21.7117 13.4613 21.7452 13.261 21.7022 13.0698C21.1599 10.9073 19.9108 8.98789 18.153 7.6164C16.3953 6.24492 14.2297 5.49996 12.0002 5.49983ZM12.1952 9.00983L15.9962 12.8098C15.9471 11.8177 15.5308 10.8793 14.8283 10.1771C14.1258 9.47476 13.1873 9.05874 12.1952 9.00983Z" fill="#212121"/>
</svg>
